<svg version="1.1" id="Capa_1" xmlns="http://www.w3.org/2000/svg" x="0px"
     y="0px"
     viewBox="0 0 205 205" style="enable-background:new 0 0 205 205;" xml:space="preserve">
<path d="M102.5,205c56.519,0,102.5-45.981,102.5-102.5S159.019,0,102.5,0S0,45.981,0,102.5S45.981,205,102.5,205z M190,102.5
	c0,48.248-39.252,87.5-87.5,87.5c-9.344,0-18.349-1.478-26.799-4.203l53.578-45.719c2.189-1.564,4.237-3.309,6.119-5.221
	l0.036-0.031l-0.003-0.004c8.183-8.335,13.242-19.747,13.242-32.322c0-11.978-4.586-22.903-12.092-31.117h47.697
	C187.97,81.057,190,91.545,190,102.5z M72.081,109.293c-0.488-2.188-0.754-4.459-0.754-6.793c0-16.907,13.532-30.704,30.333-31.151
	v0.035h2.646c16.351,0.938,29.368,14.534,29.368,31.117c0,8.271-3.244,15.793-8.518,21.379l-5.189,4.428
	c-4.986,3.385-10.999,5.366-17.466,5.366c-12.685,0-23.617-7.62-28.479-18.519l0.037-0.012L72.081,109.293z M102.5,15
	c31.334,0,58.869,16.56,74.328,41.383h-72.114c-0.734-0.035-1.472-0.056-2.214-0.056c-17.303,0-32.404,9.572-40.311,23.694
	l-15.235-45.08C62.074,22.488,81.429,15,102.5,15z M35.111,46.75l22.534,66.679c4.466,18.327,19.893,32.395,38.917,34.85
	l-36.197,30.887C33.345,164.256,15,135.481,15,102.5C15,81.333,22.556,61.899,35.111,46.75z"/>
</svg>
